{
  "accessors": [
    {
      "bufferView": 2,
      "componentType": 5126,
      "count": 3360,
      "max": [
        4.0839438438415527,
        4.0740089416503906,
        3.2556300163269043
      ],
      "min": [
        -4.0839481353759766,
        -4.0740132331848145,
        0.10170699656009674
      ],
      "type": "VEC3"
    },
    {
      "bufferView": 2,
      "byteOffset": 40320,
      "componentType": 5126,
      "count": 3360,
      "max": [
        1,
        1,
        0.99995797872543335
      ],
      "min": [
        -1,
        -1,
        -0.99967163801193237
      ],
      "type": "VEC3"
    },
    {
      "bufferView": 1,
      "componentType": 5126,
      "count": 3360,
      "max": [
        0.99352800846099854,
        0.71400099992752075
      ],
      "min": [
        0.12095899879932404,
        0.017612000927329063
      ],
      "type": "VEC2"
    },
    {
      "bufferView": 0,
      "componentType": 5125,
      "count": 18048,
      "max": [
        3359
      ],
      "min": [
        0
      ],
      "type": "SCALAR"
    },
    {
      "bufferView": 2,
      "byteOffset": 80640,
      "componentType": 5126,
      "count": 285,
      "max": [
        2.4077270030975342,
        2.4178950786590576,
        7.6834869384765625
      ],
      "min": [
        -2.4102880954742432,
        -2.4001169204711914,
        2.9813389778137207
      ],
      "type": "VEC3"
    },
    {
      "bufferView": 2,
      "byteOffset": 84060,
      "componentType": 5126,
      "count": 285,
      "max": [
        1,
        1,
        1
      ],
      "min": [
        -1,
        -1,
        -1
      ],
      "type": "VEC3"
    },
    {
      "bufferView": 1,
      "byteOffset": 26880,
      "componentType": 5126,
      "count": 285,
      "max": [
        0.36564800143241882,
        0.96919101476669312
      ],
      "min": [
        0.057514999061822891,
        0.68031597137451172
      ],
      "type": "VEC2"
    },
    {
      "bufferView": 0,
      "byteOffset": 72192,
      "componentType": 5125,
      "count": 1440,
      "max": [
        284
      ],
      "min": [
        0
      ],
      "type": "SCALAR"
    },
    {
      "bufferView": 2,
      "byteOffset": 87480,
      "componentType": 5126,
      "count": 285,
      "max": [
        0.58855801820755005,
        0.59872698783874512,
        5.9080657958984375
      ],
      "min": [
        -0.59111899137496948,
        -0.58095002174377441,
        4.7567582130432129
      ],
      "type": "VEC3"
    },
    {
      "bufferView": 2,
      "byteOffset": 90900,
      "componentType": 5126,
      "count": 285,
      "max": [
        1,
        1,
        1
      ],
      "min": [
        -1,
        -1,
        -1
      ],
      "type": "VEC3"
    },
    {
      "bufferView": 1,
      "byteOffset": 29160,
      "componentType": 5126,
      "count": 285,
      "max": [
        0.36564800143241882,
        0.96919101476669312
      ],
      "min": [
        0.057514999061822891,
        0.68031597137451172
      ],
      "type": "VEC2"
    },
    {
      "bufferView": 0,
      "byteOffset": 77952,
      "componentType": 5125,
      "count": 1440,
      "max": [
        284
      ],
      "min": [
        0
      ],
      "type": "SCALAR"
    },
    {
      "bufferView": 2,
      "byteOffset": 94320,
      "componentType": 5126,
      "count": 818,
      "max": [
        0.99234700202941895,
        2.0060820579528809,
        6.7667269706726074
      ],
      "min": [
        -1.4662699699401855,
        -1.999101996421814,
        4.3820571899414062
      ],
      "type": "VEC3"
    },
    {
      "bufferView": 2,
      "byteOffset": 104136,
      "componentType": 5126,
      "count": 818,
      "max": [
        0.99290114641189575,
        0.99668264389038086,
        0.99841773509979248
      ],
      "min": [
        -0.99496060609817505,
        -0.99668198823928833,
        -0.99738675355911255
      ],
      "type": "VEC3"
    },
    {
      "bufferView": 1,
      "byteOffset": 31440,
      "componentType": 5126,
      "count": 818,
      "max": [
        0.96346700191497803,
        1.0075219869613647
      ],
      "min": [
        0.31366398930549622,
        0
      ],
      "type": "VEC2"
    },
    {
      "bufferView": 0,
      "byteOffset": 83712,
      "componentType": 5125,
      "count": 1968,
      "max": [
        817
      ],
      "min": [
        0
      ],
      "type": "SCALAR"
    }
  ],
  "asset": {
    "extras": {
      "author": "Moons (https://sketchfab.com/mounica.choco9)",
      "license": "CC-BY-4.0 (http://creativecommons.org/licenses/by/4.0/)",
      "source": "https://sketchfab.com/3d-models/crystal-ball-807fae63bc3b4db79eb719632123d942",
      "title": "Crystal ball"
    },
    "generator": "Sketchfab-7.39.0",
    "version": "2.0"
  },
  "bufferViews": [
    {
      "buffer": 0,
      "byteLength": 91584,
      "byteOffset": 0,
      "name": "floatBufferViews",
      "target": 34963
    },
    {
      "buffer": 0,
      "byteLength": 37984,
      "byteOffset": 91584,
      "byteStride": 8,
      "name": "floatBufferViews",
      "target": 34962
    },
    {
      "buffer": 0,
      "byteLength": 113952,
      "byteOffset": 129568,
      "byteStride": 12,
      "name": "floatBufferViews",
      "target": 34962
    }
  ],
  "buffers": [
    {
      "byteLength": 243520,
      "uri": "scene.bin"
    }
  ],
  "materials": [
    {
      "doubleSided": true,
      "name": "aiStandardSurface1SG",
      "pbrMetallicRoughness": {
        "baseColorFactor": [
          0.41712625297240125,
          0.41712625297240125,
          0.41712625297240125,
          1
        ],
        "metallicFactor": 0.69999999999999996,
        "roughnessFactor": 0
      }
    },
    {
      "alphaMode": "BLEND",
      "doubleSided": true,
      "emissiveFactor": [
        0.0051207847429288337,
        0.25357945361462181,
        0.26996548155989791
      ],
      "name": "aiStandardSurface3SG",
      "pbrMetallicRoughness": {
        "baseColorFactor": [
          1,
          1,
          1,
          0.20000000000000001
        ],
        "metallicFactor": 0,
        "roughnessFactor": 0
      }
    },
    {
      "doubleSided": true,
      "emissiveFactor": [
        1,
        1,
        1
      ],
      "name": "aiStandardSurface4SG",
      "pbrMetallicRoughness": {
        "baseColorFactor": [
          1,
          1,
          1,
          1
        ],
        "metallicFactor": 0,
        "roughnessFactor": 0
      }
    },
    {
      "doubleSided": true,
      "emissiveFactor": [
        1,
        1,
        1
      ],
      "name": "aiStandardSurface5SG",
      "pbrMetallicRoughness": {
        "baseColorFactor": [
          1,
          1,
          1,
          1
        ],
        "metallicFactor": 0,
        "roughnessFactor": 0
      }
    }
  ],
  "meshes": [
    {
      "primitives": [
        {
          "attributes": {
            "NORMAL": 1,
            "POSITION": 0,
            "TEXCOORD_0": 2
          },
          "indices": 3,
          "material": 0,
          "mode": 4
        }
      ]
    },
    {
      "primitives": [
        {
          "attributes": {
            "NORMAL": 5,
            "POSITION": 4,
            "TEXCOORD_0": 6
          },
          "indices": 7,
          "material": 1,
          "mode": 4
        }
      ]
    },
    {
      "primitives": [
        {
          "attributes": {
            "NORMAL": 9,
            "POSITION": 8,
            "TEXCOORD_0": 10
          },
          "indices": 11,
          "material": 3,
          "mode": 4
        }
      ]
    },
    {
      "primitives": [
        {
          "attributes": {
            "NORMAL": 13,
            "POSITION": 12,
            "TEXCOORD_0": 14
          },
          "indices": 15,
          "material": 2,
          "mode": 4
        }
      ]
    }
  ],
  "nodes": [
    {
      "children": [
        1
      ],
      "name": "RootNode (gltf orientation matrix)",
      "rotation": [
        -0.70710678118654746,
        -0,
        -0,
        0.70710678118654757
      ]
    },
    {
      "children": [
        2
      ],
      "name": "RootNode (model correction matrix)"
    },
    {
      "children": [
        3,
        4,
        5,
        6
      ],
      "name": "ball.obj.cleaner.materialmerger.gles"
    },
    {
      "mesh": 0,
      "name": ""
    },
    {
      "mesh": 1,
      "name": ""
    },
    {
      "mesh": 2,
      "name": ""
    },
    {
      "mesh": 3,
      "name": ""
    }
  ],
  "scene": 0,
  "scenes": [
    {
      "name": "OSG_Scene",
      "nodes": [
        0
      ]
    }
  ]
}

